<svg xmlns="http://www.w3.org/2000/svg" xmlns:xlink="http://www.w3.org/1999/xlink" width="93.661" height="62.353" viewBox="0 0 93.661 62.353">
  <defs>
    <linearGradient id="linear-gradient" x1="-0.044" y1="0.985" x2="1.043" y2="0.197" gradientUnits="objectBoundingBox">
      <stop offset="0" stop-color="#bf00ff"/>
      <stop offset="1" stop-color="#c70067"/>
    </linearGradient>
  </defs>
  <g id="Layer_1-2" transform="translate(0 0.091)">
    <path id="Path_1" data-name="Path 1" d="M30.528,57.265a2.676,2.676,0,0,1-1.174,3.6h0a2.676,2.676,0,0,1-3.6-1.174L15.292,39.12a2.792,2.792,0,0,1,2.485-4.055h6.089V22.559a1.736,1.736,0,0,0-1.734-1.734H7.1a1.736,1.736,0,0,0-1.734,1.734v32.59A1.736,1.736,0,0,0,7.1,56.883H17.462a2.69,2.69,0,0,1,0,5.379H3.427A3.429,3.429,0,0,1,0,58.835V18.886a3.429,3.429,0,0,1,3.427-3.427H25.8a3.429,3.429,0,0,1,3.427,3.427V38.4A2.039,2.039,0,0,1,27.2,40.431H21.982l8.547,16.821Zm-17.995-4.7a1.475,1.475,0,1,0,0,2.949h3.454a1.475,1.475,0,1,0,0-2.949H12.534Zm26.419-29.19a2.686,2.686,0,0,0-2.69,2.69v33.5a2.69,2.69,0,0,0,5.379,0v-33.5A2.686,2.686,0,0,0,38.952,23.378Zm25.968,5.366a2.69,2.69,0,1,0,0-5.379H48.8a1.829,1.829,0,0,0-.273.014,2.192,2.192,0,0,0-.519.109,1.823,1.823,0,0,0-.246.1,2.718,2.718,0,0,0-1.174.969,2.679,2.679,0,0,0-.464,1.5V42.806a2.686,2.686,0,0,0,2.69,2.69H62.245V56.883H48.81a2.69,2.69,0,0,0,0,5.379H64.934a2.686,2.686,0,0,0,2.69-2.69c0-1.488,0-.218-.027-.328,0-.109.027-.218.027-.328V42.834h0a2.662,2.662,0,0,0-.614-1.707,2.822,2.822,0,0,0-.792-.655,2.962,2.962,0,0,0-.478-.2,2.53,2.53,0,0,0-.792-.123H51.513V28.757H64.948ZM90.971,40.13H77.536V28.743H90.971a2.69,2.69,0,0,0,0-5.379H74.847a2.686,2.686,0,0,0-2.69,2.69v33.5a2.686,2.686,0,0,0,2.69,2.69H90.971a2.69,2.69,0,1,0,0-5.379H77.536V45.482H90.971a2.686,2.686,0,0,0,2.69-2.69h0a2.686,2.686,0,0,0-2.69-2.69ZM44.714,15.664A17.262,17.262,0,0,0,39.58,5.124a18.273,18.273,0,0,0-8.1-4.642A16.564,16.564,0,0,0,25.7-.024a1.067,1.067,0,0,0-.9.505A1.176,1.176,0,0,0,25.914,2.3c.874-.014,1.761-.068,2.635,0A15.177,15.177,0,0,1,37.1,5.97,16.4,16.4,0,0,1,39.99,9.233,14.565,14.565,0,0,1,42.5,16.77a1.146,1.146,0,0,0,1.215,1.161,1.167,1.167,0,0,0,1.092-1.3c-.027-.328-.055-.655-.1-.983ZM26.023,7.335c.355-.014.7-.055,1.051-.055A10.021,10.021,0,0,1,33.136,9.3a10.223,10.223,0,0,1,4.1,6.171,16.424,16.424,0,0,1,.232,1.857,1.165,1.165,0,0,0,1.024,1.065,1.05,1.05,0,0,0,1.174-.806,2.771,2.771,0,0,0,.1-.887,9.726,9.726,0,0,0-.56-2.717A12.255,12.255,0,0,0,36.413,9.11a13.077,13.077,0,0,0-6.567-3.8,11.744,11.744,0,0,0-3.9-.259,1.173,1.173,0,0,0-.819.369,1.19,1.19,0,0,0-.177,1.3,1.071,1.071,0,0,0,1.079.655Zm5.953,4.478c-.273-.191-.683-.505-1.133-.765a7.2,7.2,0,0,0-4.792-.969,1.155,1.155,0,0,0,.259,2.294c.15,0,.287-.027.437-.041a5.457,5.457,0,0,1,5.693,5.284,1.151,1.151,0,0,0,1.133,1.215,1.2,1.2,0,0,0,1.188-1.242,7.754,7.754,0,0,0-2.785-5.748Z" transform="translate(0 0)" fill="url(#linear-gradient)"/>
  </g>
</svg>
