<svg xmlns="http://www.w3.org/2000/svg" width="363.351" height="241.894" viewBox="0 0 363.351 241.894">
  <g id="Layer_1-2" transform="translate(0 0.091)">
    <path id="Path_1" data-name="Path 1" d="M118.433,222.417a10.383,10.383,0,0,1-4.555,13.983h0a10.383,10.383,0,0,1-13.983-4.555L59.323,152.024a10.832,10.832,0,0,1,9.64-15.731H92.586V87.776a6.736,6.736,0,0,0-6.727-6.727H27.543a6.736,6.736,0,0,0-6.727,6.727V214.207a6.736,6.736,0,0,0,6.727,6.727h40.2a10.434,10.434,0,0,1,0,20.869H13.295A13.3,13.3,0,0,1,0,228.508V73.528A13.3,13.3,0,0,1,13.295,60.233h86.812A13.3,13.3,0,0,1,113.4,73.528v75.689a7.912,7.912,0,0,1-7.892,7.892H85.276l33.157,65.255ZM48.623,204.2a5.72,5.72,0,1,0,0,11.441h13.4a5.72,5.72,0,1,0,0-11.441h-13.4ZM151.114,90.954a10.421,10.421,0,0,0-10.434,10.434v129.98a10.434,10.434,0,0,0,20.869,0V101.388A10.421,10.421,0,0,0,151.114,90.954ZM251.856,111.77a10.434,10.434,0,1,0,0-20.869H189.3a7.1,7.1,0,0,0-1.059.053,8.5,8.5,0,0,0-2.013.424,7.069,7.069,0,0,0-.953.371,10.543,10.543,0,0,0-4.555,3.761,10.392,10.392,0,0,0-1.8,5.826v64.99a10.421,10.421,0,0,0,10.434,10.434h52.119v44.174H189.356a10.434,10.434,0,0,0,0,20.869h62.554a10.421,10.421,0,0,0,10.434-10.434c0-5.773,0-.847-.106-1.271,0-.424.106-.847.106-1.271V166.431h0a10.329,10.329,0,0,0-2.384-6.621,10.946,10.946,0,0,0-3.072-2.542,11.49,11.49,0,0,0-1.854-.795,9.814,9.814,0,0,0-3.072-.477H199.843V111.823h52.119Zm101.06,44.174H300.8V111.77h52.119a10.434,10.434,0,0,0,0-20.869H290.363a10.421,10.421,0,0,0-10.434,10.434v129.98a10.421,10.421,0,0,0,10.434,10.434h62.554a10.434,10.434,0,1,0,0-20.869H300.8V176.707h52.119a10.421,10.421,0,0,0,10.434-10.434h0a10.421,10.421,0,0,0-10.434-10.434ZM173.466,61.028a66.965,66.965,0,0,0-19.915-40.89A70.891,70.891,0,0,0,122.141,2.129,64.26,64.26,0,0,0,99.683.169a4.14,4.14,0,0,0-3.5,1.96,4.571,4.571,0,0,0,0,5.032c.953,1.589,2.489,2.013,4.343,2.013,3.39-.053,6.833-.265,10.223,0A58.879,58.879,0,0,1,143.91,23.422a63.64,63.64,0,0,1,11.229,12.659,56.5,56.5,0,0,1,9.746,29.238,4.446,4.446,0,0,0,4.714,4.5,4.529,4.529,0,0,0,4.237-5.032c-.106-1.271-.212-2.542-.371-3.814Zm-72.511-32.31c1.377-.053,2.7-.212,4.078-.212a38.876,38.876,0,0,1,23.517,7.839,39.659,39.659,0,0,1,15.89,23.941,63.714,63.714,0,0,1,.9,7.2,4.519,4.519,0,0,0,3.973,4.131,4.073,4.073,0,0,0,4.555-3.125,10.748,10.748,0,0,0,.371-3.443,37.732,37.732,0,0,0-2.172-10.54A47.543,47.543,0,0,0,141.262,35.6a50.732,50.732,0,0,0-25.477-14.725,45.559,45.559,0,0,0-15.148-1.006,4.55,4.55,0,0,0-3.178,1.43,4.616,4.616,0,0,0-.689,5.032,4.155,4.155,0,0,0,4.184,2.542Zm23.093,17.373c-1.059-.742-2.648-1.96-4.4-2.966a27.931,27.931,0,0,0-18.591-3.761,4.482,4.482,0,0,0,1.006,8.9c.583,0,1.112-.106,1.695-.159,11.547-.742,21.875,8.845,22.087,20.5a4.465,4.465,0,0,0,4.4,4.714,4.661,4.661,0,0,0,4.608-4.82c-.212-8.792-3.867-15.943-10.805-22.3Z" transform="translate(0 0)" fill="#fff"/>
  </g>
</svg>
