<svg xmlns="http://www.w3.org/2000/svg" width="1920.004" height="1719" viewBox="0 0 1920.004 1719">
  <path id="Intersection_1" data-name="Intersection 1" d="M689.222,1964.04v-623.7q8.75-2.231,17.442-4.415c49.756-12.5,99.259-24.114,147.134-34.524,46.117-10.026,92.024-19.219,136.449-27.319,42.649-7.778,85.174-14.778,126.4-20.806,39.412-5.762,78.771-10.8,116.985-14.982,36.367-3.976,72.773-7.289,108.206-9.847,33.505-2.418,67.173-4.236,100.065-5.4,30.843-1.093,61.984-1.647,92.561-1.647,59.886,0,119.407,2.06,181.965,6.3,57.41,3.892,110.6,9.192,155.054,13.864,12.216,1.283,24.32,2.578,36.025,3.83l.263.028h.014c40.367,4.318,78.5,8.4,115.069,11.393,40.907,3.351,74.563,4.911,105.914,4.911,26.728,0,51.377-1.145,75.353-3.5,12.6-1.239,25.163-2.839,37.327-4.758,12.561-1.981,25.147-4.372,37.407-7.1,52.179-11.626,102.936-30.266,155.169-56.984a346.755,346.755,0,0,0,37.695-22.359,325.99,325.99,0,0,0,33.092-25.9,321.85,321.85,0,0,0,28.709-29.163,332.806,332.806,0,0,0,24.553-32.144,358.994,358.994,0,0,0,20.621-34.849,399.264,399.264,0,0,0,16.909-37.275c4.954-12.573,9.47-25.837,13.423-39.422l.2-.69v303.639c-6.7,9.9-13.632,19.534-20.668,28.7-8.352,10.875-17.083,21.4-25.95,31.279-9.027,10.058-18.448,19.729-28,28.747-9.72,9.175-19.854,17.934-30.124,26.036-10.444,8.239-21.317,16.028-32.32,23.147-11.191,7.243-22.826,14-34.584,20.078-11.951,6.181-24.373,11.843-36.919,16.829-12.748,5.065-25.979,9.573-39.329,13.4-13.561,3.887-27.627,7.182-41.807,9.794-14.4,2.652-29.322,4.673-44.356,6.009-15.258,1.355-31.062,2.043-46.979,2.043a621.936,621.936,0,0,1-72.384-4.384,766.584,766.584,0,0,1-78.18-13.51c-25.8-5.8-51.89-10.93-77.549-15.24-25.165-4.228-50.613-7.787-75.638-10.579-24.525-2.736-49.319-4.81-73.694-6.165-23.881-1.328-48.008-2-71.713-2-22.687,0-45.619.616-68.156,1.828-22.055,1.189-44.343,2.983-66.247,5.332-21.415,2.3-43.056,5.191-64.319,8.6-20.782,3.332-41.769,7.247-62.377,11.635-20.131,4.287-40.458,9.145-60.419,14.436-19.466,5.162-39.129,10.883-58.441,17-18.809,5.963-37.8,12.469-56.449,19.34-18.159,6.691-36.475,13.9-54.44,21.441C1162.12,1577.9,1040.6,1651.63,927,1744.17c-23.331,19-46.557,39.009-69.033,59.458-20.43,18.588-40.706,37.964-60.261,57.589-32.928,33.048-64.443,67.4-93.673,102.106l-.6.715ZM2590.46,472.663c-6.713-27.858-14.3-56.593-22.558-85.407-13.4-46.783-28.784-94.6-45.735-142.216h87.052V559.783C2603.89,531.521,2597.59,502.228,2590.46,472.663Z" transform="translate(-689.222 -245.04)" fill="#c400b0"/>
</svg>
